<?xml version="1.0" encoding="iso-8859-1"?>
<!-- Generator: Adobe Illustrator 15.0.2, SVG Export Plug-In . SVG Version: 6.00 Build 0)  -->
<!DOCTYPE svg PUBLIC "-//W3C//DTD SVG 1.1//EN" "http://www.w3.org/Graphics/SVG/1.1/DTD/svg11.dtd">
<svg version="1.1" id="Layer_1" xmlns="http://www.w3.org/2000/svg" xmlns:xlink="http://www.w3.org/1999/xlink" x="0px" y="0px"
	 width="512px" height="512px" viewBox="0 0 512 512" style="enable-background:new 0 0 512 512;" xml:space="preserve">
<path d="M494.68,128.308H17.322c-6.451,0-11.679,5.229-11.679,11.68V491.32c0,6.45,5.229,11.68,11.679,11.68h477.354
	c6.449,0,11.68-5.229,11.68-11.68V139.987C506.358,133.536,501.128,128.308,494.68,128.308z M257.879,363.329
	c-4.314-1.102-27.376-11.988-123.841-114.114c-36.442-38.581-71.025-77.132-89.159-97.548h427.336
	c-17.593,19.885-52.93,59.415-90.329,98.913C285.61,352.264,262.252,362.404,257.879,363.329z M119.454,267.79
	c18.416,19.455,35.139,36.622,50.048,51.388l-140.5,142.515V168.967C48.045,190.382,82.976,229.255,119.454,267.79z
	 M186.239,335.472c4.54,4.335,8.874,8.397,12.979,12.164c37.468,34.367,50.288,39.103,58.562,39.103
	c8.662,0,21.858-4.699,59.474-38.794c3.509-3.181,7.187-6.586,11-10.174l139.675,141.87H44.107L186.239,335.472z M345.096,321.582
	c15.4-15.088,32.729-32.778,51.857-52.943c34.023-35.866,66.568-72.024,86.044-93.93v286.945L345.096,321.582z"/>
</svg>
