<?xml version="1.0" encoding="utf-8"?>
<!-- Generator: Adobe Illustrator 16.2.1, SVG Export Plug-In . SVG Version: 6.00 Build 0)  -->
<!DOCTYPE svg PUBLIC "-//W3C//DTD SVG 1.1//EN" "http://www.w3.org/Graphics/SVG/1.1/DTD/svg11.dtd">
<svg version="1.1" id="Layer_1" xmlns="http://www.w3.org/2000/svg" xmlns:xlink="http://www.w3.org/1999/xlink" x="0px" y="0px"
	 width="512px" height="512px" viewBox="0 0 512 512" enable-background="new 0 0 512 512" xml:space="preserve">
<path d="M13.396,171.871h103.921v334.218H13.396V171.871z M65.362,5.712c33.209,0,60.199,26.99,60.199,60.212
	c0,33.26-26.99,60.25-60.199,60.25c-33.298,0-60.212-26.99-60.212-60.25C5.15,32.702,32.064,5.712,65.362,5.712"/>
<path d="M182.468,171.871h99.652v45.646h1.419c13.868-26.269,47.762-53.98,98.297-53.98c105.111,0,124.527,69.205,124.527,159.23
	v183.321H402.607V343.564c0-38.781-0.76-88.633-53.993-88.633c-54.057,0-62.302,42.227-62.302,85.821v165.336H182.468V171.871z"/>
</svg>
