<?xml version="1.0" encoding="utf-8"?>
<!-- Generator: Adobe Illustrator 16.2.1, SVG Export Plug-In . SVG Version: 6.00 Build 0)  -->
<!DOCTYPE svg PUBLIC "-//W3C//DTD SVG 1.1//EN" "http://www.w3.org/Graphics/SVG/1.1/DTD/svg11.dtd">
<svg version="1.1" id="Layer_1" xmlns="http://www.w3.org/2000/svg" xmlns:xlink="http://www.w3.org/1999/xlink" x="0px" y="0px"
	 width="512px" height="512px" viewBox="0 0 512 512" enable-background="new 0 0 512 512" xml:space="preserve">
<path d="M267.812,6.481c-136.137,0-204.78,97.607-204.78,179c0,49.283,18.658,93.127,58.678,109.468
	c6.561,2.683,12.44,0.094,14.344-7.173c1.324-5.028,4.455-17.715,5.854-22.991c1.917-7.188,1.173-9.709-4.121-15.973
	c-11.54-13.612-18.915-31.234-18.915-56.192c0-72.415,54.18-137.238,141.077-137.238c76.95,0,119.223,47.018,119.223,109.81
	c0,82.62-36.561,152.345-90.842,152.345c-29.978,0-52.416-24.788-45.223-55.188c8.612-36.303,25.295-75.478,25.295-101.68
	c0-23.454-12.589-43.018-38.645-43.018c-30.643,0-55.259,31.702-55.259,74.167c0,27.046,9.139,45.341,9.139,45.341
	s-31.358,132.87-36.856,156.136c-10.949,46.344-1.646,103.156-0.859,108.893c0.461,3.4,4.831,4.208,6.81,1.639
	c2.825-3.689,39.324-48.747,51.731-93.768c3.511-12.748,20.156-78.763,20.156-78.763c9.956,18.992,39.053,35.716,69.995,35.716
	c92.111,0,154.604-83.978,154.604-196.378C449.217,85.637,377.227,6.481,267.812,6.481z"/>
</svg>
