<?xml version="1.0" encoding="utf-8"?>
<!-- Generator: Adobe Illustrator 16.2.1, SVG Export Plug-In . SVG Version: 6.00 Build 0)  -->
<!DOCTYPE svg PUBLIC "-//W3C//DTD SVG 1.1//EN" "http://www.w3.org/Graphics/SVG/1.1/DTD/svg11.dtd">
<svg version="1.1" id="Layer_1" xmlns="http://www.w3.org/2000/svg" xmlns:xlink="http://www.w3.org/1999/xlink" x="0px" y="0px"
	 width="512px" height="512px" viewBox="0 0 512 512" enable-background="new 0 0 512 512" xml:space="preserve">
<g>
	<g>
		<path d="M256,505.513C118.419,505.513,6.487,393.581,6.487,256S118.419,6.487,256,6.487S505.513,118.419,505.513,256
			S393.581,505.513,256,505.513z M256,69.655C153.249,69.655,69.655,153.249,69.655,256c0,102.749,83.594,186.345,186.345,186.345
			c102.749,0,186.345-83.596,186.345-186.345C442.345,153.249,358.749,69.655,256,69.655z"/>
	</g>
</g>
<g>
	<polygon points="350.949,256 218.486,130.972 196.862,146.518 259.038,256 198.213,364.811 221.191,381.027 	"/>
</g>
</svg>
