<?xml version="1.0" encoding="iso-8859-1"?>
<!-- Generator: Adobe Illustrator 15.0.2, SVG Export Plug-In . SVG Version: 6.00 Build 0)  -->
<!DOCTYPE svg PUBLIC "-//W3C//DTD SVG 1.1//EN" "http://www.w3.org/Graphics/SVG/1.1/DTD/svg11.dtd">
<svg version="1.1" id="Layer_1" xmlns="http://www.w3.org/2000/svg" xmlns:xlink="http://www.w3.org/1999/xlink" x="0px" y="0px"
	 width="512px" height="512px" viewBox="0 0 512 512" style="enable-background:new 0 0 512 512;" xml:space="preserve">
<path d="M6.514,271.66c61.964,0,120.203,24.202,163.976,68.229c43.855,44.027,68,102.657,68,165.081h95.483
	c0-181.308-146.904-328.792-327.458-328.792V271.66z M6.66,102.396c220.822,0,400.487,180.642,400.487,402.691h95.482
	C502.63,230.37,280.131,6.913,6.66,6.913V102.396z M138.701,438.383c0,36.52-29.618,66.137-66.137,66.137
	S6.435,474.902,6.435,438.383c0-36.54,29.609-66.139,66.128-66.139S138.701,401.843,138.701,438.383z"/>
</svg>
