<?xml version="1.0" encoding="iso-8859-1"?>
<!-- Generator: Adobe Illustrator 15.0.2, SVG Export Plug-In . SVG Version: 6.00 Build 0)  -->
<!DOCTYPE svg PUBLIC "-//W3C//DTD SVG 1.1//EN" "http://www.w3.org/Graphics/SVG/1.1/DTD/svg11.dtd">
<svg version="1.1" id="Layer_1" xmlns="http://www.w3.org/2000/svg" xmlns:xlink="http://www.w3.org/1999/xlink" x="0px" y="0px"
	 width="512px" height="512px" viewBox="0 0 512 512" style="enable-background:new 0 0 512 512;" xml:space="preserve">
<path id="ShareThis_2_" d="M181.481,255.992c0,1.733-0.404,3.37-0.494,5.101l181.548,90.754
	c15.531-13.166,35.426-21.378,57.393-21.378c49.386,0,89.418,40.018,89.418,89.411c0,49.425-40.032,89.457-89.418,89.457
	c-49.425,0-89.409-40.032-89.409-89.457c0-1.781,0.405-3.369,0.494-5.103l-181.547-90.752
	c-15.587,13.115-35.434,21.327-57.393,21.327c-49.394,0-89.418-39.984-89.418-89.361c0-49.426,40.024-89.458,89.418-89.458
	c21.959,0,41.806,8.259,57.393,21.377l181.547-90.754c-0.089-1.732-0.494-3.352-0.494-5.134c0-49.344,39.984-89.36,89.409-89.36
	c49.386,0,89.418,40.016,89.418,89.36c0,49.426-40.032,89.458-89.418,89.458c-22.016,0-41.861-8.275-57.393-21.425l-181.548,90.802
	C181.077,252.591,181.481,254.21,181.481,255.992z"/>
</svg>
