<?xml version="1.0" encoding="iso-8859-1"?>
<!-- Generator: Adobe Illustrator 15.0.2, SVG Export Plug-In . SVG Version: 6.00 Build 0)  -->
<!DOCTYPE svg PUBLIC "-//W3C//DTD SVG 1.1//EN" "http://www.w3.org/Graphics/SVG/1.1/DTD/svg11.dtd">
<svg version="1.1" id="Layer_1" xmlns="http://www.w3.org/2000/svg" xmlns:xlink="http://www.w3.org/1999/xlink" x="0px" y="0px"
	 width="512px" height="512px" viewBox="0 0 512 512" style="enable-background:new 0 0 512 512;" xml:space="preserve">
<path d="M507.178,100.195c-18.472,8.206-38.34,13.743-59.191,16.228c21.28-12.747,37.622-32.942,45.311-57.021
	c-19.917,11.815-41.965,20.395-65.446,25.021c-18.792-20.031-45.579-32.549-75.226-32.549c-56.911,0-103.058,46.147-103.058,103.063
	c0,8.077,0.906,15.938,2.669,23.482c-85.651-4.292-161.604-45.32-212.44-107.679c-8.863,15.216-13.942,32.917-13.942,51.813
	c0,35.755,18.184,67.299,45.848,85.786c-16.89-0.543-32.792-5.173-46.685-12.896c-0.01,0.428-0.01,0.861-0.01,1.304
	c0,49.926,35.521,91.582,82.684,101.063c-8.654,2.349-17.766,3.604-27.167,3.604c-6.642,0-13.095-0.637-19.389-1.853
	c13.115,40.949,51.176,70.743,96.267,71.581c-35.272,27.645-79.706,44.115-127.994,44.115c-8.316,0-16.521-0.488-24.587-1.434
	c45.629,29.246,99.792,46.305,157.999,46.305c189.565,0,293.232-157.042,293.232-293.241c0-4.461-0.1-8.917-0.299-13.334
	C475.889,139.022,493.376,120.869,507.178,100.195z"/>
</svg>
