<?xml version="1.0" encoding="iso-8859-1"?>
<!-- Generator: Adobe Illustrator 15.0.2, SVG Export Plug-In . SVG Version: 6.00 Build 0)  -->
<!DOCTYPE svg PUBLIC "-//W3C//DTD SVG 1.1//EN" "http://www.w3.org/Graphics/SVG/1.1/DTD/svg11.dtd">
<svg version="1.1" id="Layer_1" xmlns="http://www.w3.org/2000/svg" xmlns:xlink="http://www.w3.org/1999/xlink" x="0px" y="0px"
	 width="512px" height="512px" viewBox="0 0 512 512" style="enable-background:new 0 0 512 512;" xml:space="preserve">
<path id="YouTube_2_" d="M402.453,374.201h-27.853l0.139-16.164c0-7.182,5.901-13.066,13.115-13.066h1.775
	c7.229,0,13.147,5.885,13.147,13.066L402.453,374.201z M298.033,339.556c-7.068,0-12.848,4.733-12.848,10.555v78.642
	c0,5.788,5.779,10.538,12.848,10.538c7.093,0,12.872-4.75,12.872-10.538V350.11C310.905,344.289,305.126,339.556,298.033,339.556z
	 M467.591,295.573v149.586c0,35.894-31.109,65.251-69.149,65.251H114.063c-38.057,0-69.16-29.357-69.16-65.251V295.573
	c0-35.892,31.103-65.268,69.16-65.268h284.378C436.481,230.306,467.591,259.682,467.591,295.573z M133.031,461.403l-0.017-157.577
	l35.245,0.016V280.48l-93.963-0.13v22.955l29.335,0.082v158.016H133.031z M238.699,327.3h-29.392v84.139
	c0,12.174,0.746,18.271-0.033,20.411c-2.391,6.533-13.139,13.455-17.322,0.713c-0.706-2.238-0.089-8.981-0.106-20.523l-0.113-84.739
	h-29.222l0.089,83.394c0.017,12.773-0.292,22.323,0.098,26.651c0.713,7.651,0.454,16.568,7.554,21.642
	c13.229,9.55,38.567-1.409,44.906-15.026l-0.056,17.379l23.596,0.033V327.3z M332.728,423.663l-0.065-70.036
	c-0.024-26.699-19.981-42.684-47.103-21.09l0.12-52.072l-29.367,0.049l-0.138,179.723l24.139-0.357l2.204-11.186
	C313.378,476.998,332.768,457.61,332.728,423.663z M424.705,414.373l-22.033,0.129c-0.008,0.859-0.041,1.883-0.057,2.982v12.289
	c0,6.583-5.432,11.933-12.036,11.933h-4.322c-6.605,0-12.036-5.35-12.036-11.933v-1.361v-13.536v-17.443h50.451v-19
	c0-13.878-0.349-27.756-1.5-35.7c-3.606-25.095-38.835-29.083-56.636-16.227c-5.593,4.021-9.857,9.387-12.345,16.602
	c-2.505,7.23-3.745,17.086-3.745,29.602v41.762C350.446,483.906,434.771,474.097,424.705,414.373z M311.667,187.669
	c1.517,3.68,3.866,6.663,7.069,8.916c3.146,2.222,7.198,3.339,12.021,3.339c4.238,0,7.999-1.15,11.267-3.518
	c3.249-2.334,6.006-5.853,8.235-10.521l-0.543,11.526h32.764V58.089h-25.802v108.423c0,5.886-4.839,10.684-10.756,10.684
	c-5.877,0-10.732-4.798-10.732-10.684V58.089h-26.911v93.963c0,11.964,0.211,19.957,0.56,24.01
	C309.245,180.066,310.152,183.924,311.667,187.669z M212.387,108.961c0-13.358,1.127-23.815,3.332-31.337
	c2.229-7.49,6.242-13.537,12.046-18.076c5.787-4.572,13.196-6.857,22.217-6.857c7.572,0,14.064,1.491,19.487,4.41
	c5.447,2.918,9.654,6.728,12.572,11.413c2.975,4.718,4.984,9.565,6.07,14.509c1.086,5.025,1.638,12.597,1.638,22.827v35.228
	c0,12.921-0.519,22.437-1.523,28.468c-0.997,6.062-3.145,11.672-6.452,16.925c-3.274,5.204-7.489,9.11-12.613,11.591
	c-5.171,2.513-11.08,3.745-17.776,3.745c-7.465,0-13.755-1.037-18.943-3.193c-5.195-2.14-9.208-5.383-12.077-9.663
	c-2.886-4.296-4.928-9.533-6.152-15.627c-1.24-6.096-1.824-15.255-1.824-27.463V108.961z M238.043,164.308
	c0,7.896,5.876,14.332,13.018,14.332c7.157,0,13.002-6.436,13.002-14.332V90.14c0-7.879-5.845-14.316-13.002-14.316
	c-7.142,0-13.018,6.437-13.018,14.316V164.308z M147.378,201.773h30.899l0.033-106.852l36.533-91.547h-33.81l-19.422,67.992
	L141.932,3.18H108.47l38.852,91.791L147.378,201.773z"/>
</svg>
