<svg width="24" height="24" viewBox="0 0 24 24" fill="none" xmlns="http://www.w3.org/2000/svg">
<rect width="24" height="24" fill="white"/>
<path fill-rule="evenodd" clip-rule="evenodd" d="M12 19.5C16.1421 19.5 19.5 16.1421 19.5 12C19.5 7.85786 16.1421 4.5 12 4.5C7.85786 4.5 4.5 7.85786 4.5 12C4.5 16.1421 7.85786 19.5 12 19.5ZM12 21C16.9706 21 21 16.9706 21 12C21 7.02944 16.9706 3 12 3C7.02944 3 3 7.02944 3 12C3 16.9706 7.02944 21 12 21Z" fill="black"/>
<rect x="1.5" y="10.5" width="3" height="3" fill="white"/>
<rect x="1.0542" y="14.8257" width="6" height="3.60854" transform="rotate(-43.3473 1.0542 14.8257)" fill="white"/>
<path d="M3.8463 13.5001L5.96763 10.5001L1.72498 10.5001L3.8463 13.5001Z" fill="black"/>
<path d="M12 7.5V12L15 15" stroke="black" stroke-width="1.5"/>
</svg>
