<svg width="32" height="32" viewBox="0 0 32 32" fill="none" xmlns="http://www.w3.org/2000/svg">
<circle cx="16" cy="16" r="16" transform="rotate(-90 16 16)" fill="white"/>
<path d="M22.7566 15.2494L19.753 18.252C18.0953 19.9107 15.406 19.9107 13.748 18.252C13.4868 17.9916 13.2825 17.6981 13.1031 17.3955L14.4987 16C14.565 15.9331 14.6469 15.8948 14.7252 15.8496C14.8217 16.1793 14.9901 16.4914 15.2494 16.7506C16.0772 17.5792 17.4244 17.578 18.2518 16.7506L21.2544 13.7481C22.0829 12.9197 22.0829 11.5728 21.2544 10.745C20.427 9.91719 19.0802 9.91719 18.2518 10.745L17.184 11.8139C16.3176 11.4765 15.3841 11.3858 14.4753 11.519L16.7506 9.2438C18.4093 7.5854 21.0979 7.5854 22.7566 9.2438C24.4145 10.9021 24.4145 13.5911 22.7566 15.2494ZM14.8164 20.1867L13.7479 21.2556C12.9201 22.083 11.5729 22.083 10.745 21.2556C9.91706 20.427 9.91706 19.0802 10.745 18.252L13.7479 15.2494C14.5764 14.421 15.9227 14.421 16.7505 15.2494C17.0092 15.5081 17.1778 15.8201 17.2752 16.1494C17.3539 16.1036 17.4348 16.0664 17.5011 16L18.8966 14.6051C18.7183 14.3013 18.513 14.0089 18.2517 13.7482C16.5941 12.0898 13.9046 12.0898 12.2462 13.7482L9.24367 16.7508C7.58544 18.4097 7.58544 21.0979 9.24367 22.7567C10.9021 24.4145 13.591 24.4145 15.2493 22.7567L17.5252 20.481C16.6159 20.6149 15.6822 20.5235 14.8164 20.1867Z" fill="black"/>
</svg>
