<svg width="32" height="32" viewBox="0 0 32 32" fill="none" xmlns="http://www.w3.org/2000/svg">
<circle cx="16" cy="16" r="16" transform="rotate(-90 16 16)" fill="white"/>
<path d="M20.6569 9.63958C19.5556 8.58231 18.0314 8 16.3653 8C13.8201 8 12.2548 9.04329 11.3898 9.91845C10.3237 10.997 9.7124 12.4291 9.7124 13.8476C9.7124 15.6286 10.4574 16.9956 11.7049 17.5042C11.7887 17.5385 11.8729 17.5558 11.9556 17.5558C12.2187 17.5558 12.4273 17.3836 12.4995 17.1073C12.5416 16.9489 12.6392 16.5579 12.6816 16.3882C12.7725 16.053 12.6991 15.8918 12.501 15.6584C12.1402 15.2315 11.9722 14.7266 11.9722 14.0696C11.9722 12.118 13.4254 10.0439 16.1187 10.0439C18.2557 10.0439 19.5833 11.2585 19.5833 13.2137C19.5833 14.4475 19.3175 15.5901 18.8348 16.4312C18.4994 17.0156 17.9095 17.7123 17.004 17.7123C16.6125 17.7123 16.2607 17.5514 16.0388 17.271C15.8291 17.0059 15.76 16.6635 15.8443 16.3066C15.9396 15.9033 16.0695 15.4827 16.1952 15.0761C16.4245 14.3334 16.6412 13.6319 16.6412 13.0723C16.6412 12.115 16.0527 11.4718 15.1769 11.4718C14.0639 11.4718 13.1919 12.6023 13.1919 14.0454C13.1919 14.7531 13.38 15.2825 13.4652 15.4858C13.325 16.0798 12.4917 19.6117 12.3336 20.2777C12.2422 20.6665 11.6916 23.7372 12.6029 23.9821C13.6268 24.2572 14.542 21.2665 14.6352 20.9285C14.7107 20.6537 14.9748 19.6144 15.1367 18.9756C15.631 19.4517 16.4268 19.7735 17.2012 19.7735C18.661 19.7735 19.9739 19.1166 20.898 17.9239C21.7942 16.767 22.2878 15.1546 22.2878 13.3838C22.2878 11.9995 21.6933 10.6347 20.6569 9.63958Z" fill="black"/>
<path d="M20.6569 9.63958C19.5556 8.58231 18.0314 8 16.3653 8C13.8201 8 12.2548 9.04329 11.3898 9.91845C10.3237 10.997 9.7124 12.4291 9.7124 13.8476C9.7124 15.6286 10.4574 16.9956 11.7049 17.5042C11.7887 17.5385 11.8729 17.5558 11.9556 17.5558C12.2187 17.5558 12.4273 17.3836 12.4995 17.1073C12.5416 16.9489 12.6392 16.5579 12.6816 16.3882C12.7725 16.053 12.6991 15.8918 12.501 15.6584C12.1402 15.2315 11.9722 14.7266 11.9722 14.0696C11.9722 12.118 13.4254 10.0439 16.1187 10.0439C18.2557 10.0439 19.5833 11.2585 19.5833 13.2137C19.5833 14.4475 19.3175 15.5901 18.8348 16.4312C18.4994 17.0156 17.9095 17.7123 17.004 17.7123C16.6125 17.7123 16.2607 17.5514 16.0388 17.271C15.8291 17.0059 15.76 16.6635 15.8443 16.3066C15.9396 15.9033 16.0695 15.4827 16.1952 15.0761C16.4245 14.3334 16.6412 13.6319 16.6412 13.0723C16.6412 12.115 16.0527 11.4718 15.1769 11.4718C14.0639 11.4718 13.1919 12.6023 13.1919 14.0454C13.1919 14.7531 13.38 15.2825 13.4652 15.4858C13.325 16.0798 12.4917 19.6117 12.3336 20.2777C12.2422 20.6665 11.6916 23.7372 12.6029 23.9821C13.6268 24.2572 14.542 21.2665 14.6352 20.9285C14.7107 20.6537 14.9748 19.6144 15.1367 18.9756C15.631 19.4517 16.4268 19.7735 17.2012 19.7735C18.661 19.7735 19.9739 19.1166 20.898 17.9239C21.7942 16.767 22.2878 15.1546 22.2878 13.3838C22.2878 11.9995 21.6933 10.6347 20.6569 9.63958Z" fill="black"/>
</svg>
