<svg width="24" height="24" viewBox="0 0 24 24" fill="none" xmlns="http://www.w3.org/2000/svg">
<rect width="24" height="24" fill="white"/>
<path fill-rule="evenodd" clip-rule="evenodd" d="M8.0767 18.393L7.51209 19.9443L10.3312 20.9703L10.8958 19.419C9.87458 19.2684 8.92038 18.9118 8.0767 18.393ZM13.747 19.2952L14.4443 20.7906L17.1632 19.5227L16.4654 18.0262C15.6664 18.6191 14.7454 19.057 13.747 19.2952ZM18.3931 15.9233L19.9438 16.4877L20.9698 13.6686L19.4192 13.1042C19.2685 14.1254 18.912 15.0796 18.3931 15.9233ZM19.2955 10.253L20.7906 9.55584L19.5227 6.83691L18.0266 7.53458C18.6195 8.33356 19.0573 9.25454 19.2955 10.253ZM15.9232 5.60643L16.4875 4.05585L13.6685 3.02979L13.1041 4.58045C14.1253 4.73111 15.0795 5.08761 15.9232 5.60643ZM10.2532 4.70424L9.55608 3.2092L6.83716 4.47705L7.53483 5.9732C8.3338 5.38026 9.25478 4.94242 10.2532 4.70424ZM5.60654 8.07681L4.05536 7.51222L3.0293 10.3313L4.58066 10.8959C4.73129 9.87472 5.08775 8.92051 5.60654 8.07681ZM4.70454 13.7467L3.20917 14.444L4.47702 17.163L5.97358 16.4651C5.38061 15.6661 4.94275 14.7452 4.70454 13.7467Z" fill="black"/>
<circle cx="12" cy="12" r="6.75" fill="white" stroke="black" stroke-width="1.5"/>
</svg>
